<svg width="478" height="108" viewBox="0 0 478 108" fill="none" xmlns="http://www.w3.org/2000/svg">
<path d="M24.7213 84H7.38531L7.49469 71.2031H24.7213C29.0233 71.2031 32.6509 70.237 35.6041 68.3047C38.5572 66.3359 40.7811 63.474 42.2759 59.7188C43.8072 55.9635 44.5728 51.4245 44.5728 46.1016V42.2188C44.5728 38.1354 44.1353 34.5443 43.2603 31.4453C42.4218 28.3464 41.164 25.7396 39.4869 23.625C37.8098 21.5104 35.7499 19.9245 33.3072 18.8672C30.8645 17.7734 28.0572 17.2266 24.8853 17.2266H7.05719V4.375H24.8853C30.2082 4.375 35.0754 5.28646 39.4869 7.10938C43.9348 8.89583 47.7811 11.4661 51.0259 14.8203C54.2707 18.1745 56.7681 22.1849 58.5181 26.8516C60.3046 31.4818 61.1978 36.6406 61.1978 42.3281V46.1016C61.1978 51.7526 60.3046 56.9115 58.5181 61.5781C56.7681 66.2448 54.2707 70.2552 51.0259 73.6094C47.8176 76.9271 43.9713 79.4974 39.4869 81.3203C35.039 83.1068 30.1171 84 24.7213 84ZM16.6822 4.375V84H0.27594V4.375H16.6822ZM107.545 69.8359V24.8281H123.295V84H108.475L107.545 69.8359ZM109.295 57.6953L113.944 57.5859C113.944 61.5234 113.488 65.1875 112.577 68.5781C111.665 71.9323 110.298 74.849 108.475 77.3281C106.652 79.7708 104.355 81.6849 101.584 83.0703C98.8135 84.4193 95.5505 85.0938 91.7953 85.0938C88.9151 85.0938 86.2537 84.6927 83.8109 83.8906C81.4047 83.0521 79.3266 81.7578 77.5766 80.0078C75.863 78.2214 74.5141 75.9427 73.5297 73.1719C72.5818 70.3646 72.1078 66.9922 72.1078 63.0547V24.8281H87.8578V63.1641C87.8578 64.9141 88.0583 66.3906 88.4594 67.5938C88.8969 68.7969 89.4984 69.7812 90.2641 70.5469C91.0297 71.3125 91.9229 71.8594 92.9438 72.1875C94.001 72.5156 95.1677 72.6797 96.4438 72.6797C99.6885 72.6797 102.241 72.0234 104.1 70.7109C105.996 69.3984 107.327 67.612 108.092 65.3516C108.894 63.0547 109.295 60.5026 109.295 57.6953ZM164.721 24.8281V35.9844H130.268V24.8281H164.721ZM138.799 10.2266H154.549V66.1719C154.549 67.8854 154.768 69.1979 155.205 70.1094C155.679 71.0208 156.372 71.6589 157.283 72.0234C158.195 72.3516 159.343 72.5156 160.729 72.5156C161.713 72.5156 162.588 72.4792 163.354 72.4062C164.156 72.2969 164.83 72.1875 165.377 72.0781L165.432 83.6719C164.083 84.1094 162.625 84.4557 161.057 84.7109C159.489 84.9661 157.757 85.0938 155.862 85.0938C152.398 85.0938 149.372 84.5286 146.783 83.3984C144.231 82.2318 142.263 80.3724 140.877 77.8203C139.492 75.2682 138.799 71.9141 138.799 67.7578V10.2266ZM198.545 72.7891C200.477 72.7891 202.191 72.4245 203.686 71.6953C205.18 70.9297 206.347 69.8724 207.186 68.5234C208.061 67.138 208.516 65.5156 208.553 63.6562H223.373C223.337 67.8125 222.225 71.513 220.037 74.7578C217.85 77.9661 214.915 80.5 211.232 82.3594C207.55 84.1823 203.43 85.0938 198.873 85.0938C194.279 85.0938 190.269 84.3281 186.842 82.7969C183.451 81.2656 180.626 79.151 178.365 76.4531C176.105 73.7188 174.41 70.5469 173.279 66.9375C172.149 63.2917 171.584 59.3906 171.584 55.2344V53.6484C171.584 49.4557 172.149 45.5547 173.279 41.9453C174.41 38.2995 176.105 35.1276 178.365 32.4297C180.626 29.6953 183.451 27.5625 186.842 26.0312C190.232 24.5 194.206 23.7344 198.764 23.7344C203.613 23.7344 207.86 24.6641 211.506 26.5234C215.188 28.3828 218.068 31.0443 220.147 34.5078C222.261 37.9349 223.337 42 223.373 46.7031H208.553C208.516 44.7344 208.097 42.9479 207.295 41.3438C206.529 39.7396 205.399 38.4635 203.904 37.5156C202.446 36.5312 200.641 36.0391 198.49 36.0391C196.193 36.0391 194.316 36.5312 192.857 37.5156C191.399 38.4635 190.269 39.776 189.467 41.4531C188.665 43.0938 188.1 44.9714 187.772 47.0859C187.48 49.1641 187.334 51.3516 187.334 53.6484V55.2344C187.334 57.5312 187.48 59.737 187.772 61.8516C188.063 63.9661 188.61 65.8438 189.412 67.4844C190.251 69.125 191.399 70.4193 192.857 71.3672C194.316 72.3151 196.212 72.7891 198.545 72.7891ZM248.283 0V84H232.533V0H248.283ZM246.041 52.3359H241.721C241.757 48.2161 242.304 44.4245 243.361 40.9609C244.419 37.4609 245.932 34.4349 247.9 31.8828C249.869 29.2943 252.221 27.2891 254.955 25.8672C257.726 24.4453 260.788 23.7344 264.143 23.7344C267.059 23.7344 269.702 24.1536 272.072 24.9922C274.478 25.7943 276.538 27.1068 278.252 28.9297C280.002 30.7161 281.351 33.0677 282.299 35.9844C283.247 38.901 283.721 42.4375 283.721 46.5938V84H267.861V46.4844C267.861 43.8594 267.478 41.7995 266.713 40.3047C265.984 38.7734 264.908 37.6979 263.486 37.0781C262.101 36.4219 260.387 36.0938 258.346 36.0938C256.085 36.0938 254.153 36.513 252.549 37.3516C250.981 38.1901 249.723 39.3568 248.775 40.8516C247.827 42.3099 247.135 44.0234 246.697 45.9922C246.26 47.9609 246.041 50.0755 246.041 52.3359ZM328.099 55.6172H307.81V42.8203H328.099C331.235 42.8203 333.787 42.3099 335.756 41.2891C337.724 40.2318 339.164 38.7734 340.076 36.9141C340.987 35.0547 341.443 32.9583 341.443 30.625C341.443 28.2552 340.987 26.0495 340.076 24.0078C339.164 21.9661 337.724 20.3255 335.756 19.0859C333.787 17.8464 331.235 17.2266 328.099 17.2266H313.498V84H297.092V4.375H328.099C334.334 4.375 339.675 5.50521 344.123 7.76562C348.607 9.98958 352.034 13.0703 354.404 17.0078C356.774 20.9453 357.959 25.4479 357.959 30.5156C357.959 35.6562 356.774 40.1042 354.404 43.8594C352.034 47.6146 348.607 50.513 344.123 52.5547C339.675 54.5964 334.334 55.6172 328.099 55.6172ZM399.986 70.6562V44.2969C399.986 42.401 399.676 40.7786 399.056 39.4297C398.436 38.0443 397.47 36.9688 396.158 36.2031C394.882 35.4375 393.223 35.0547 391.181 35.0547C389.431 35.0547 387.918 35.3646 386.642 35.9844C385.366 36.5677 384.382 37.4245 383.689 38.5547C382.996 39.6484 382.65 40.9427 382.65 42.4375H366.9C366.9 39.9219 367.483 37.5339 368.65 35.2734C369.817 33.013 371.512 31.026 373.736 29.3125C375.96 27.5625 378.603 26.1953 381.666 25.2109C384.765 24.2266 388.228 23.7344 392.056 23.7344C396.65 23.7344 400.733 24.5 404.306 26.0312C407.879 27.5625 410.686 29.8594 412.728 32.9219C414.806 35.9844 415.845 39.8125 415.845 44.4062V69.7266C415.845 72.9714 416.046 75.6328 416.447 77.7109C416.848 79.7526 417.431 81.5391 418.197 83.0703V84H402.283C401.517 82.3958 400.934 80.3906 400.533 77.9844C400.168 75.5417 399.986 73.099 399.986 70.6562ZM402.064 47.9609L402.173 56.875H393.369C391.291 56.875 389.486 57.112 387.955 57.5859C386.423 58.0599 385.166 58.7344 384.181 59.6094C383.197 60.4479 382.468 61.4323 381.994 62.5625C381.556 63.6927 381.337 64.9323 381.337 66.2812C381.337 67.6302 381.647 68.8516 382.267 69.9453C382.887 71.0026 383.78 71.8411 384.947 72.4609C386.114 73.0443 387.481 73.3359 389.048 73.3359C391.418 73.3359 393.478 72.862 395.228 71.9141C396.978 70.9661 398.327 69.7995 399.275 68.4141C400.259 67.0286 400.77 65.7161 400.806 64.4766L404.962 71.1484C404.379 72.6432 403.577 74.1927 402.556 75.7969C401.572 77.401 400.314 78.9141 398.783 80.3359C397.252 81.7214 395.41 82.8698 393.259 83.7812C391.108 84.6562 388.556 85.0938 385.603 85.0938C381.848 85.0938 378.439 84.3464 375.377 82.8516C372.351 81.3203 369.944 79.224 368.158 76.5625C366.408 73.8646 365.533 70.8021 365.533 67.375C365.533 64.276 366.116 61.5234 367.283 59.1172C368.449 56.7109 370.163 54.6875 372.423 53.0469C374.72 51.3698 377.582 50.112 381.009 49.2734C384.436 48.3984 388.41 47.9609 392.931 47.9609H402.064ZM445.076 77.3281L460.771 24.8281H477.669L453.88 92.9141C453.37 94.4089 452.677 96.013 451.802 97.7266C450.964 99.4401 449.815 101.062 448.357 102.594C446.935 104.161 445.13 105.438 442.943 106.422C440.792 107.406 438.149 107.898 435.013 107.898C433.518 107.898 432.297 107.807 431.349 107.625C430.401 107.443 429.271 107.188 427.958 106.859V95.3203C428.359 95.3203 428.779 95.3203 429.216 95.3203C429.654 95.3568 430.073 95.375 430.474 95.375C432.552 95.375 434.247 95.138 435.56 94.6641C436.872 94.1901 437.93 93.4609 438.732 92.4766C439.534 91.5286 440.172 90.2891 440.646 88.7578L445.076 77.3281ZM438.513 24.8281L451.365 67.7031L453.607 84.3828L442.888 85.5312L421.615 24.8281H438.513Z" fill="#3C6F37"/>
</svg>
